<mxfile host="app.diagrams.net" modified="2024-01-27T18:13:16.651Z" agent="Mozilla/5.0 (Macintosh; Intel Mac OS X 10_15_7) AppleWebKit/537.36 (KHTML, like Gecko) Chrome/120.0.0.0 Safari/537.36" etag="cOeTM_EShmzAcbfi6RCr" version="23.0.2" type="github">
  <diagram name="Page-1" id="7NqJ6HXCWSNGFC2UPa45">
    <mxGraphModel dx="629" dy="676" grid="0" gridSize="10" guides="1" tooltips="1" connect="1" arrows="1" fold="1" page="1" pageScale="1" pageWidth="827" pageHeight="1169" math="1" shadow="0">
      <root>
        <mxCell id="0" />
        <mxCell id="1" parent="0" />
        <mxCell id="oCiNiJ4cGFl3GC3NZHYB-1" value="state &lt;i&gt;s&lt;/i&gt;" style="rounded=0;whiteSpace=wrap;html=1;" vertex="1" parent="1">
          <mxGeometry x="146" y="417" width="60" height="30" as="geometry" />
        </mxCell>
        <mxCell id="oCiNiJ4cGFl3GC3NZHYB-11" value="" style="strokeWidth=1;html=1;shape=mxgraph.flowchart.annotation_1;align=left;pointerEvents=1;" vertex="1" parent="1">
          <mxGeometry x="238" y="382" width="96" height="100" as="geometry" />
        </mxCell>
        <mxCell id="oCiNiJ4cGFl3GC3NZHYB-12" value="" style="endArrow=none;html=1;rounded=0;" edge="1" parent="1">
          <mxGeometry width="50" height="50" relative="1" as="geometry">
            <mxPoint x="206" y="432" as="sourcePoint" />
            <mxPoint x="238" y="431.64" as="targetPoint" />
          </mxGeometry>
        </mxCell>
        <mxCell id="oCiNiJ4cGFl3GC3NZHYB-16" value="rand &amp;gt; epsilon&amp;nbsp;" style="text;html=1;align=center;verticalAlign=middle;resizable=0;points=[];autosize=1;strokeColor=none;fillColor=none;" vertex="1" parent="1">
          <mxGeometry x="239" y="359" width="97" height="26" as="geometry" />
        </mxCell>
        <mxCell id="oCiNiJ4cGFl3GC3NZHYB-19" value="rand &amp;lt; epsilon&amp;nbsp;" style="text;html=1;align=center;verticalAlign=middle;resizable=0;points=[];autosize=1;strokeColor=none;fillColor=none;" vertex="1" parent="1">
          <mxGeometry x="239" y="457" width="97" height="26" as="geometry" />
        </mxCell>
        <mxCell id="oCiNiJ4cGFl3GC3NZHYB-21" value="evaluate network" style="rounded=1;whiteSpace=wrap;html=1;" vertex="1" parent="1">
          <mxGeometry x="334" y="366" width="104" height="31" as="geometry" />
        </mxCell>
        <mxCell id="oCiNiJ4cGFl3GC3NZHYB-22" value="random action" style="rounded=1;whiteSpace=wrap;html=1;" vertex="1" parent="1">
          <mxGeometry x="334" y="467" width="104" height="31" as="geometry" />
        </mxCell>
        <mxCell id="oCiNiJ4cGFl3GC3NZHYB-24" style="edgeStyle=orthogonalEdgeStyle;rounded=0;orthogonalLoop=1;jettySize=auto;html=1;" edge="1" parent="1" source="oCiNiJ4cGFl3GC3NZHYB-23">
          <mxGeometry relative="1" as="geometry">
            <mxPoint x="482.42857142857156" y="432" as="targetPoint" />
          </mxGeometry>
        </mxCell>
        <mxCell id="oCiNiJ4cGFl3GC3NZHYB-23" value="" style="strokeWidth=1;html=1;shape=mxgraph.flowchart.annotation_1;align=left;pointerEvents=1;flipH=1;" vertex="1" parent="1">
          <mxGeometry x="438" y="382" width="16" height="100" as="geometry" />
        </mxCell>
        <mxCell id="oCiNiJ4cGFl3GC3NZHYB-25" value="action &lt;i&gt;a&lt;/i&gt;" style="rounded=0;whiteSpace=wrap;html=1;" vertex="1" parent="1">
          <mxGeometry x="483" y="417" width="60" height="30" as="geometry" />
        </mxCell>
      </root>
    </mxGraphModel>
  </diagram>
</mxfile>
